<?xml version="1.0" encoding="UTF-8"?>
<svg id="Layer_2" data-name="Layer 2" xmlns="http://www.w3.org/2000/svg" viewBox="0 0 316.38 59.77">
  <defs>
    <style>
      .cls-1 {
        fill: #1ea80f;
      }

      .cls-1, .cls-2 {
        stroke-width: 0px;
      }

      .cls-2 {
        fill: #1c7010;
      }
    </style>
  </defs>
  <g id="Layer_1-2" data-name="Layer 1">
    <path class="cls-1" d="m309.5,46.58c-7.81,12.91-24.61,17.05-37.53,9.24s-17.05-24.61-9.24-37.53c7.81-12.91,24.61-17.05,37.53-9.24,12.91,7.81,17.05,24.61,9.24,37.53Zm-11.48-33.82c-10.87-6.57-25-3.09-31.57,7.77-6.57,10.87-3.09,25,7.77,31.57,10.87,6.57,25,3.09,31.57-7.77,6.57-10.87,3.09-25-7.77-31.57Z"/>
    <g>
      <g>
        <path class="cls-1" d="m297.52,15.38c-.79,1.3-2.76,2.78-2.76,2.78,0,0,.4-2.43,1.18-3.74s1.24-1.25,1.67-.99.69.63-.1,1.94Z"/>
        <path class="cls-1" d="m276.3,50.45c.79-1.3,1.18-3.74,1.18-3.74,0,0-1.97,1.48-2.76,2.78s-.53,1.67-.1,1.94.88.32,1.67-.99Z"/>
      </g>
      <g>
        <path class="cls-1" d="m269.06,21.04c1.3.79,2.78,2.76,2.78,2.76,0,0-2.43-.4-3.74-1.18s-1.25-1.24-.99-1.67.63-.69,1.94.1Z"/>
        <path class="cls-1" d="m304.13,42.26c-1.3-.79-3.74-1.18-3.74-1.18,0,0,1.48,1.97,2.78,2.76s1.67.53,1.94.1.32-.88-.99-1.67Z"/>
      </g>
    </g>
    <g>
      <g>
        <path class="cls-1" d="m287.46,11.96c-.03,1.52-1,3.79-1,3.79,0,0-.87-2.3-.84-3.83s.45-1.7.95-1.69.92.2.88,1.73Z"/>
        <path class="cls-1" d="m286.62,52.95c.03-1.52-.84-3.83-.84-3.83,0,0-.97,2.27-1,3.79s.38,1.72.88,1.73.92-.17.95-1.69Z"/>
      </g>
      <g>
        <path class="cls-1" d="m265.65,31.1c1.52.03,3.79,1,3.79,1,0,0-2.3.87-3.83.84s-1.7-.45-1.69-.95.2-.92,1.73-.88Z"/>
        <path class="cls-1" d="m306.63,31.94c-1.52-.03-3.83.84-3.83.84,0,0,2.27.97,3.79,1s1.72-.38,1.73-.88-.17-.92-1.69-.95Z"/>
      </g>
    </g>
    <g>
      <g>
        <path class="cls-1" d="m277.04,14.04c.73,1.33,1.03,3.78,1.03,3.78,0,0-1.91-1.56-2.64-2.89s-.46-1.69-.02-1.94.89-.28,1.63,1.05Z"/>
        <path class="cls-1" d="m296.81,49.95c-.73-1.33-2.64-2.89-2.64-2.89,0,0,.3,2.45,1.03,3.78s1.18,1.3,1.63,1.05.72-.6-.02-1.94Z"/>
      </g>
      <g>
        <path class="cls-1" d="m267.72,41.52c1.33-.73,3.78-1.03,3.78-1.03,0,0-1.56,1.91-2.89,2.64s-1.69.46-1.94.02-.28-.89,1.05-1.63Z"/>
        <path class="cls-1" d="m303.63,21.75c-1.33.73-2.89,2.64-2.89,2.64,0,0,2.45-.3,3.78-1.03s1.3-1.18,1.05-1.63-.6-.72-1.94.02Z"/>
      </g>
    </g>
    <circle class="cls-1" cx="286.12" cy="32.44" r="2.5"/>
    <path class="cls-1" d="m289.6,32.58c-2.3,3.75-4.31,2.66-5.05,2.21s-2.62-1.76-.33-5.5,9.66-9.73,9.66-9.73c0,0-1.99,9.28-4.28,13.03Z"/>
    <g>
      <rect class="cls-1" x="296.96" y="5.09" width="6.83" height="7.09" transform="translate(47.82 -154.21) rotate(31.17)"/>
      <rect class="cls-1" x="297.51" y="1.36" width="11.04" height="5.78" rx="2.89" ry="2.89" transform="translate(45.94 -156.21) rotate(31.17)"/>
    </g>
    <rect class="cls-1" x="310.4" y="23.34" width="5.99" height="5.52" rx="2.76" ry="2.76" transform="translate(2.85 75.69) rotate(-13.83)"/>
    <g>
      <path class="cls-2" d="m0,51.85l6.03-6.82c.76,1.87,1.99,3.34,3.67,4.42s3.58,1.61,5.68,1.61c2.54,0,4.55-.6,6.03-1.8,1.48-1.2,2.22-2.82,2.22-4.85,0-2.4-2.46-4.79-7.38-7.17-1.59-.76-2.85-1.39-3.77-1.87-4.43-2.31-7.5-4.57-9.21-6.77s-2.56-4.83-2.56-7.88c0-4.18,1.66-7.61,4.97-10.3,3.31-2.69,7.61-4.03,12.9-4.03,3.07,0,5.72.54,7.95,1.61s4.2,2.75,5.9,5.04l-6.41,6.13c-.76-1.48-1.77-2.58-3.03-3.31s-2.78-1.09-4.55-1.09c-2.15,0-3.88.54-5.19,1.61s-1.97,2.46-1.97,4.17c0,2.68,2.61,5.13,7.83,7.34,1.04.44,1.84.78,2.39,1.04,4.29,1.96,7.47,4.18,9.54,6.65s3.1,5.29,3.1,8.45c0,4.76-1.62,8.55-4.87,11.38-3.24,2.83-7.6,4.24-13.07,4.24-3.88,0-7.2-.67-9.97-2.01-2.77-1.34-4.84-3.27-6.2-5.78Z"/>
      <path class="cls-2" d="m37.3,58.3V7.59h10.84v20.33h21.99V7.59h10.84v50.7h-10.84v-21.19h-21.99v21.19h-10.84Z"/>
      <path class="cls-2" d="m138.5,33.05c0,3.62-.68,7.05-2.03,10.29s-3.3,6.07-5.84,8.52c-2.63,2.52-5.6,4.44-8.9,5.78-3.3,1.34-6.72,2.01-10.25,2.01-3.09,0-6.12-.53-9.09-1.58-2.97-1.05-5.69-2.56-8.16-4.52-3.19-2.54-5.63-5.58-7.32-9.11s-2.55-7.33-2.55-11.39c0-3.65.67-7.07,2.01-10.27s3.3-6.04,5.89-8.54c2.54-2.47,5.49-4.39,8.85-5.75s6.82-2.04,10.37-2.04,6.97.68,10.3,2.04,6.29,3.28,8.85,5.75c2.56,2.49,4.51,5.34,5.85,8.55s2.01,6.63,2.01,10.25Zm-27.01,16.93c4.59,0,8.39-1.61,11.38-4.83,2.99-3.22,4.48-7.26,4.48-12.1s-1.51-8.84-4.54-12.12c-3.02-3.28-6.8-4.92-11.32-4.92s-8.4,1.63-11.43,4.9-4.54,7.31-4.54,12.14,1.49,8.94,4.47,12.14,6.81,4.8,11.5,4.8Z"/>
      <path class="cls-2" d="m177.23,7.59l7.52,27.5c.48,1.75.94,3.64,1.35,5.64s.81,4.26,1.18,6.75c.05-2.1.2-4.17.47-6.22s.66-4.1,1.19-6.18l6.58-27.5h10.7l-13.26,50.7h-10.42l-9.07-32.35c-.44-1.48-.78-2.97-1.04-4.47s-.43-3.06-.52-4.68c-.12,1.71-.29,3.32-.54,4.85s-.56,2.96-.95,4.29l-9.14,32.35h-10.42l-13.26-50.7h10.84l6.68,28.16c.37,1.62.67,3.37.9,5.25s.4,3.93.52,6.15c.44-2.93,1.25-6.65,2.42-11.15l.17-.73,7.45-27.67h10.67Z"/>
    </g>
    <path class="cls-1" d="m234.13,31.53h23.1c0,.3-.03.62-.08.97s-.14.88-.26,1.59c-1.34,7.6-4.59,13.75-9.77,18.46s-11.2,7.06-18.08,7.06c-7.87,0-13.92-2.51-18.13-7.53-4.22-5.02-5.64-11.4-4.28-19.13s5.03-14,11.04-19.01,12.93-7.52,20.75-7.52c4.13,0,7.77.87,10.9,2.6,3.13,1.73,5.75,4.32,7.84,7.76l-8.26,5.4c-1.42-2.26-3.05-3.9-4.88-4.9-1.83-1-4.06-1.51-6.7-1.51-5.01,0-9.29,1.56-12.84,4.68s-5.79,7.28-6.71,12.5-.13,9.26,2.33,12.42,6.11,4.73,10.96,4.73c3.56,0,6.59-.84,9.1-2.51s4.01-3.86,4.48-6.56l.1-.55h-12.19l1.58-8.93Z"/>
  </g>
</svg>