<?xml version="1.0" encoding="UTF-8"?>
<svg id="Layer_2" data-name="Layer 2" xmlns="http://www.w3.org/2000/svg" viewBox="0 0 380.16 61.33">
  <defs>
    <style>
      .cls-1 {
        fill: #1ea80f;
      }

      .cls-1, .cls-2 {
        stroke-width: 0px;
      }

      .cls-2 {
        fill: #41005b;
      }
    </style>
  </defs>
  <g id="Layer_1-2" data-name="Layer 1">
    <g>
      <path class="cls-1" d="m37.87,8.06l-5.62,10.94c-1.3-1.06-2.75-1.91-4.36-2.56-1.61-.65-3.28-.97-5-.97-.24,0-.5.01-.79.04-.29.02-.58.08-.86.18-1.1.24-2.11.72-3.02,1.44-.91.72-1.37,1.68-1.37,2.88s.43,2.08,1.3,2.77c.86.7,1.8,1.26,2.81,1.69.38.14.76.28,1.12.4.36.12.71.23,1.04.32l3.6,1.01c3.79,1.15,6.97,2.82,9.54,5,2.57,2.19,3.85,5.48,3.85,9.9v1.15c-.1,2.5-.55,4.93-1.37,7.31-.82,2.38-2.23,4.43-4.25,6.16-1.82,1.58-3.89,2.76-6.19,3.53-2.3.77-4.66,1.25-7.06,1.44-.38,0-.76.01-1.12.04-.36.02-.71.04-1.04.04-3.41,0-6.74-.54-10.01-1.62-3.26-1.08-6.29-2.58-9.07-4.5l6.05-11.45c1.78,1.58,3.71,2.93,5.8,4.03,2.09,1.1,4.33,1.66,6.73,1.66h.58c1.58-.1,3.02-.59,4.32-1.48,1.3-.89,1.94-2.22,1.94-4,0-1.34-.54-2.42-1.62-3.24-1.08-.82-2.29-1.46-3.64-1.94-.58-.19-1.15-.37-1.73-.54-.58-.17-1.1-.32-1.58-.47-.1-.05-.2-.08-.32-.11-.12-.02-.23-.06-.32-.11-4.27-1.2-7.68-2.74-10.22-4.61-2.54-1.87-3.82-5.38-3.82-10.51,0-5.52,1.76-9.94,5.29-13.25,3.53-3.31,8-4.97,13.43-4.97,1.1,0,2.23.06,3.38.18,1.15.12,2.3.32,3.46.61,1.82.38,3.61.89,5.36,1.51,1.75.62,3.35,1.34,4.79,2.16v-.07Z"/>
      <path class="cls-1" d="m77.29,25.99V5.04h14.11v54.29h-14.11v-22.25h-20.38v22.25h-14.11V5.04h14.11v20.95h20.38Z"/>
      <path class="cls-1" d="m170.91,40.1h.14l11.38-35.06h11.23l10.66,35.06h.14l10.22-35.06h14.69l-17.35,54.29h-14.4l-9.5-31.46h-.14l-10.66,31.46h-14.33l-16.2-54.29h14.69l9.43,35.06Z"/>
    </g>
    <g>
      <g>
        <path class="cls-2" d="m231.75,59.22l16.12-49.6h-14.93l1.5-4.63h34.82l-1.5,4.63h-14.96l-16.12,49.6h-4.93Z"/>
        <path class="cls-2" d="m257.83,59.22l17.62-54.23h4.93l-17.62,54.23h-4.93Z"/>
        <path class="cls-2" d="m298.33,61.33l-4.9-43.52-17.57,41.41h-5.07l25.74-56.52,5.1,48.26L338.87,2.69l-11.4,56.52h-5.07l9.42-41.41-33.48,43.52Z"/>
        <path class="cls-2" d="m335.69,59.22l17.62-54.23h26.85l-1.5,4.63h-21.93l-5.51,16.96h21.93l-1.5,4.63h-21.93l-7.59,23.37h21.93l-1.5,4.63h-26.85Z"/>
      </g>
      <g>
        <path class="cls-2" d="m146.75,21.9c6.49,13.63.7,29.93-12.93,36.42s-29.93.7-36.42-12.93-.7-29.93,12.93-36.42,29.93-.7,36.42,12.93Zm-34.56-9.01c-11.47,5.46-16.33,19.18-10.88,30.64,5.46,11.47,19.18,16.33,30.64,10.88s16.33-19.18,10.88-30.64-19.18-16.33-30.64-10.88Z"/>
        <g>
          <g>
            <path class="cls-2" d="m114.09,14.74c.65,1.38.81,3.84.81,3.84,0,0-1.81-1.67-2.47-3.04s-.36-1.72.1-1.94.91-.23,1.56,1.15Z"/>
            <path class="cls-2" d="m131.71,51.75c-.65-1.38-2.47-3.04-2.47-3.04,0,0,.15,2.46.81,3.84s1.11,1.37,1.56,1.15.75-.56.1-1.94Z"/>
          </g>
          <g>
            <path class="cls-2" d="m103.17,41.62c1.38-.65,3.84-.81,3.84-.81,0,0-1.67,1.81-3.04,2.47s-1.72.36-1.94-.1-.23-.91,1.15-1.56Z"/>
            <path class="cls-2" d="m140.18,24c-1.38.65-3.04,2.47-3.04,2.47,0,0,2.46-.15,3.84-.81s1.37-1.11,1.15-1.56-.56-.75-1.94-.1Z"/>
          </g>
        </g>
        <g>
          <g>
            <path class="cls-2" d="m105.71,21.26c1.26.86,2.62,2.92,2.62,2.92,0,0-2.4-.54-3.66-1.4s-1.17-1.31-.89-1.73.67-.65,1.93.21Z"/>
            <path class="cls-2" d="m139.47,44.51c-1.26-.86-3.66-1.4-3.66-1.4,0,0,1.36,2.05,2.62,2.92s1.64.63,1.93.21.37-.86-.89-1.73Z"/>
          </g>
          <g>
            <path class="cls-2" d="m109.69,50c.86-1.26,2.92-2.62,2.92-2.62,0,0-.54,2.4-1.4,3.66s-1.31,1.17-1.73.89-.65-.67.21-1.93Z"/>
            <path class="cls-2" d="m132.93,16.24c-.86,1.26-1.4,3.66-1.4,3.66,0,0,2.05-1.36,2.92-2.62s.63-1.64.21-1.93-.86-.37-1.73.89Z"/>
          </g>
        </g>
        <g>
          <g>
            <path class="cls-2" d="m101.71,31.1c1.52.12,3.73,1.22,3.73,1.22,0,0-2.35.74-3.87.62s-1.67-.55-1.63-1.05.26-.9,1.78-.78Z"/>
            <path class="cls-2" d="m142.58,34.35c-1.52-.12-3.87.62-3.87.62,0,0,2.21,1.1,3.73,1.22s1.74-.28,1.78-.78-.11-.93-1.63-1.05Z"/>
          </g>
          <g>
            <path class="cls-2" d="m119.53,54c.12-1.52,1.22-3.73,1.22-3.73,0,0,.74,2.35.62,3.87s-.55,1.67-1.05,1.63-.9-.26-.78-1.78Z"/>
            <path class="cls-2" d="m122.78,13.14c-.12,1.52.62,3.87.62,3.87,0,0,1.1-2.21,1.22-3.73s-.28-1.74-.78-1.78-.93.11-1.05,1.63Z"/>
          </g>
        </g>
        <circle class="cls-2" cx="122.07" cy="33.64" r="2.5"/>
        <path class="cls-2" d="m124.73,35.53c-3.49,2.67-4.98.93-5.51.24s-1.81-2.58,1.68-5.25,12.52-5.6,12.52-5.6c0,0-5.2,7.94-8.69,10.61Z"/>
        <g>
          <rect class="cls-2" x="106.62" y="5.1" width="6.83" height="7.09" transform="translate(6.97 48.14) rotate(-25.46)"/>
          <rect class="cls-2" x="102.31" y="1.13" width="11.04" height="5.78" rx="2.89" ry="2.89" transform="translate(8.74 46.74) rotate(-25.46)"/>
        </g>
        <rect class="cls-2" x="128.79" y="4.62" width="5.99" height="5.52" rx="2.76" ry="2.76" transform="translate(80.75 129.1) rotate(-70.46)"/>
      </g>
    </g>
  </g>
</svg>